<svg xmlns="http://www.w3.org/2000/svg" viewBox="0 0 24 24" fill="currentColor">
  <path d="M12 2C7.03 2 3 6.03 3 11c0 3.87 2.69 7.15 6.36 8.24.46.15.98-.07 1.13-.54.14-.44.04-.92-.26-1.24-1.14-1.19-1.72-2.85-1.43-4.5.38-2.17 2.28-3.87 4.51-4.12 1.21-.14 2.36.22 3.28.98.33.27.82.25 1.12-.05.34-.34.34-.88.02-1.22C16.1 7.29 14.12 6.5 12 6.5c-1.4 0-2.75.41-3.87 1.17C7.51 8.66 7 9.28 6.5 10c-.5-.72-1.01-1.34-1.63-1.83C5.62 7.41 8.6 2 12 2z"/>
  <circle cx="15.5" cy="8.5" r="1.5" fill="currentColor"/>
  <circle cx="8.5" cy="12.5" r="1.5" fill="currentColor"/>
  <circle cx="12" cy="15.5" r="1.5" fill="currentColor"/>
</svg>